<svg id="图层_1" data-name="图层 1" xmlns="http://www.w3.org/2000/svg" viewBox="0 0 900 700"><defs><style>.cls-1{opacity:0.6;}.cls-16,.cls-2{fill:#71bfdb;}.cls-3{opacity:0.1;}.cls-4{fill:#586874;}.cls-5{opacity:0.08;}.cls-14,.cls-6{fill:#fff;}.cls-7{fill:#e4e4e4;}.cls-8{fill:#f5f5f5;}.cls-15,.cls-9{fill:#484848;}.cls-10{fill:#9c9b9b;}.cls-11{fill:#dbdfe1;}.cls-12{fill:#fffffc;}.cls-13{fill:#252e36;}.cls-13,.cls-14,.cls-16{fill-rule:evenodd;}.cls-15{opacity:0.4;}</style></defs><title>画板 1</title><g class="cls-1"><path class="cls-2" d="M690.72,414.17C690.72,554.36,577.08,668,436.9,668S183.09,554.36,183.09,414.17,296.74,160.35,436.9,160.35,690.72,274,690.72,414.17Z"/></g><g class="cls-3"><path d="M520.58,551.54c-7.42-5.55-10.29-27.32-11.38-42H641.27a8.65,8.65,0,0,0,8.62-8.62v-150H807.1a6.47,6.47,0,0,0,6.47-6.47V180.06a6.47,6.47,0,0,0-6.47-6.47H594.18a6.47,6.47,0,0,0-6.46,6.47v61.21H300.1V178a6.46,6.46,0,0,0-6.46-6.46H96.89A6.46,6.46,0,0,0,90.43,178v212a6.47,6.47,0,0,0,6.46,6.47H260V500.87a8.64,8.64,0,0,0,8.62,8.62H398.79c-1.09,14.73-4,36.5-11.37,42-11.48,8.61-28.12,15.5,12.05,15.5h109C548.7,567,532.05,560.15,520.58,551.54Zm-65.65-305.4a1.8,1.8,0,1,1-1.8,1.79A1.8,1.8,0,0,1,454.93,246.14ZM293.64,396.39a6.46,6.46,0,0,0,6.46-6.47V254.25H587.72v90.11a6.47,6.47,0,0,0,6.46,6.47H635V457.37H274.85v-61Z"/><rect x="587.72" y="539.35" width="236.14" height="150.77" rx="6.46" ry="6.46"/><path d="M96.9,538.46H320.11a6.47,6.47,0,0,1,6.47,6.47V682.77a6.46,6.46,0,0,1-6.46,6.46H96.89a6.46,6.46,0,0,1-6.46-6.46V544.93A6.47,6.47,0,0,1,96.9,538.46Z"/></g><polygon class="cls-2" points="703.24 619.11 698.09 619.11 698.09 615.61 700.66 615.61 700.66 612.11 703.24 612.11 703.24 619.11"/><path class="cls-2" d="M703.24,601.89h-2.58V591.67h2.58Zm0-20.44h-2.58V571.24h2.58Zm0-20.43h-2.58V550.8h2.58Zm0-20.44h-2.58V530.36h2.58Zm0-20.44h-2.58V509.93h2.58Z"/><polygon class="cls-2" points="703.24 499.71 700.66 499.71 700.66 492.72 705.81 492.72 705.81 496.21 703.24 496.21 703.24 499.71"/><path class="cls-2" d="M773.17,496.21h-8.42v-3.49h8.42Zm-16.84,0h-8.42v-3.49h8.42Zm-16.84,0h-8.42v-3.49h8.42Zm-16.84,0h-8.42v-3.49h8.42Z"/><polygon class="cls-2" points="786.73 496.21 781.59 496.21 781.59 492.72 784.16 492.72 784.16 489.22 786.73 489.22 786.73 496.21"/><path class="cls-2" d="M786.73,478.72h-2.57v-10.5h2.57Zm0-21h-2.57v-10.5h2.57Zm0-21h-2.57v-10.5h2.57Zm0-21h-2.57v-10.5h2.57Z"/><polygon class="cls-2" points="786.73 394.74 784.16 394.74 784.16 391.24 781.59 391.24 781.59 387.74 786.73 387.74 786.73 394.74"/><path class="cls-2" d="M774.6,391.24h-7v-3.5h7Zm-14,0h-7v-3.5h7Zm-14,0h-7v-3.5h7Z"/><polygon class="cls-2" points="732.7 391.24 727.55 391.24 727.55 384.24 730.12 384.24 730.12 387.74 732.7 387.74 732.7 391.24"/><path class="cls-2" d="M730.12,375.58h-2.57v-8.66h2.57Zm0-17.33h-2.57v-8.66h2.57Z"/><polygon class="cls-2" points="730.12 340.93 727.55 340.93 727.55 333.93 732.7 333.93 732.7 337.43 730.12 337.43 730.12 340.93"/><path class="cls-2" d="M816.31,337.43H808v-3.5h8.36Zm-16.72,0h-8.36v-3.5h8.36Zm-16.73,0H774.5v-3.5h8.36Zm-16.72,0h-8.36v-3.5h8.36Zm-16.72,0h-8.36v-3.5h8.36Z"/><polygon class="cls-2" points="829.82 337.43 824.67 337.43 824.67 333.93 827.25 333.93 827.25 330.43 829.82 330.43 829.82 337.43"/><path class="cls-2" d="M829.82,320.67h-2.57V310.9h2.57Zm0-19.53h-2.57v-9.77h2.57Zm0-19.53h-2.57v-9.77h2.57Z"/><polygon class="cls-2" points="829.82 262.07 827.25 262.07 827.25 258.58 824.67 258.58 824.67 255.08 829.82 255.08 829.82 262.07"/><path class="cls-2" d="M816.75,258.58h-7.93v-3.5h7.93Zm-15.85,0H793v-3.5h7.93Zm-15.85,0h-7.92v-3.5h7.92Zm-15.85,0h-7.92v-3.5h7.92Zm-15.84,0h-7.93v-3.5h7.93Zm-15.85,0h-7.93v-3.5h7.93Zm-15.85,0h-7.92v-3.5h7.92Z"/><polygon class="cls-2" points="705.81 258.58 700.66 258.58 700.66 251.58 703.24 251.58 703.24 255.08 705.81 255.08 705.81 258.58"/><path class="cls-2" d="M703.24,240.66h-2.58V229.74h2.58Zm0-21.84h-2.58V207.9h2.58Zm0-21.85h-2.58V186.05h2.58Zm0-21.84h-2.58V164.21h2.58Zm0-21.84h-2.58V142.37h2.58Zm0-21.84h-2.58V120.53h2.58Z"/><polygon class="cls-2" points="703.24 109.61 700.66 109.61 700.66 106.11 698.09 106.11 698.09 102.61 703.24 102.61 703.24 109.61"/><path class="cls-2" d="M690.63,106.11h-7.46v-3.5h7.46Zm-14.92,0h-7.46v-3.5h7.46Zm-14.93,0h-7.46v-3.5h7.46Zm-14.92,0H638.4v-3.5h7.46Zm-14.92,0h-7.46v-3.5h7.46Zm-14.92,0h-7.46v-3.5H616Zm-14.92,0h-7.47v-3.5h7.47Zm-14.93,0h-7.46v-3.5h7.46Zm-14.92,0h-7.46v-3.5h7.46Zm-14.92,0h-7.46v-3.5h7.46Z"/><polygon class="cls-2" points="541.41 106.11 536.26 106.11 536.26 99.11 538.83 99.11 538.83 102.61 541.41 102.61 541.41 106.11"/><path class="cls-2" d="M538.83,87.49h-2.57V75.87h2.57Zm0-23.23h-2.57V52.64h2.57Z"/><polygon class="cls-2" points="538.83 41.02 536.26 41.02 536.26 37.52 533.69 37.53 533.68 34.03 538.83 34.02 538.83 41.02"/><path class="cls-2" d="M285.19,37.89v-3.5H293v3.5Zm15.53,0V34.37h7.77v3.49Zm15.54,0v-3.5H324v3.5Zm15.53,0v-3.5h7.77v3.5Zm15.53,0V34.3h7.77v3.5Zm15.53,0v-3.5h7.76v3.49Zm15.53,0v-3.5h7.76v3.5Zm15.53,0v-3.5h7.76v3.5Zm15.53,0v-3.5h7.76v3.5Zm15.53,0v-3.5h7.76v3.49Zm15.53,0V34.17l7.76,0v3.5Zm15.53,0v-3.5h7.77v3.5Zm15.53,0v-3.5h7.77v3.5Zm15.54,0V34.1l7.77,0v3.5Zm15.53,0v-3.5h7.77v3.5Zm15.53,0v-3.5h7.77v3.5Z"/><polygon class="cls-2" points="274.86 41.4 272.28 41.4 272.28 34.41 277.43 34.4 277.43 37.9 274.86 37.9 274.86 41.4"/><path class="cls-2" d="M274.85,87.87h-2.57V76.26h2.57Zm0-23.23h-2.57V53h2.57Z"/><polygon class="cls-2" points="274.86 106.49 269.7 106.48 269.71 102.98 272.28 102.99 272.28 99.49 274.86 99.49 274.86 106.49"/><path class="cls-2" d="M262.37,106.45l-7.33,0v-3.5l7.34,0Zm-14.66,0-7.34,0v-3.5l7.33,0Zm-14.67,0-7.33,0v-3.5l7.34,0Zm-14.66,0-7.34,0v-3.5l7.33,0Zm-14.67,0-7.33,0v-3.5l7.33,0ZM189,106.21l-7.33,0v-3.5l7.34,0Zm-14.66,0-7.34,0v-3.5l7.33,0Z"/><polygon class="cls-2" points="157.14 109.61 154.57 109.61 154.57 102.6 159.72 102.62 159.71 106.12 157.14 106.11 157.14 109.61"/><path class="cls-2" d="M157.14,206.43h-2.57v-9.69h2.57Zm0-19.37h-2.57v-9.68h2.57Zm0-19.36h-2.57V158h2.57Zm0-19.37h-2.57v-9.68h2.57Zm0-19.36h-2.57v-9.68h2.57Z"/><polygon class="cls-2" points="157.14 223.1 151.99 223.1 151.99 219.61 154.57 219.61 154.57 216.11 157.14 216.11 157.14 223.1"/><path class="cls-2" d="M144.67,223.1h-7.33v-3.49h7.33Zm-14.65,0h-7.33v-3.49H130Zm-14.65,0H108v-3.49h7.33Zm-14.65,0H93.39v-3.49h7.33Zm-14.65,0H78.74v-3.49h7.33Zm-14.65,0H64.09v-3.49h7.33Zm-14.65,0H49.44v-3.49h7.33Z"/><polygon class="cls-2" points="39.55 226.6 36.97 226.6 36.97 219.61 42.12 219.61 42.12 223.1 39.55 223.1 39.55 226.6"/><path class="cls-2" d="M39.55,331.22H37V320.76h2.58Zm0-20.92H37V299.84h2.58Zm0-20.92H37V278.91h2.58Zm0-20.93H37V258h2.58Zm0-20.92H37V237.07h2.58Z"/><polygon class="cls-2" points="42.12 348.68 36.97 348.68 36.97 341.68 39.55 341.68 39.55 345.18 42.12 345.18 42.12 348.68"/><path class="cls-2" d="M98.63,348.68H91.57v-3.5h7.06Zm-14.13,0H77.44v-3.5H84.5Zm-14.12,0H63.31v-3.5h7.07Zm-14.13,0H49.18v-3.5h7.07Z"/><polygon class="cls-2" points="110.84 352.18 108.27 352.18 108.27 348.68 105.7 348.68 105.7 345.18 110.84 345.18 110.84 352.18"/><rect class="cls-2" x="108.27" y="361.89" width="2.57" height="9.71"/><polygon class="cls-2" points="113.42 388.3 108.27 388.3 108.27 381.3 110.84 381.3 110.84 384.8 113.42 384.8 113.42 388.3"/><path class="cls-2" d="M138.41,388.3h-6.25v-3.5h6.25Zm-12.5,0h-6.25v-3.5h6.25Z"/><polygon class="cls-2" points="149.8 391.8 147.23 391.8 147.23 388.3 144.65 388.3 144.65 384.8 149.8 384.8 149.8 391.8"/><path class="cls-2" d="M149.8,447h-2.57v-9.2h2.57Zm0-18.4h-2.57V419.4h2.57Zm0-18.41h-2.57V401h2.57Z"/><polygon class="cls-2" points="149.8 463.21 144.65 463.21 144.65 459.71 147.23 459.71 147.23 456.21 149.8 456.21 149.8 463.21"/><path class="cls-2" d="M138,463.21h-6.64v-3.5H138Zm-13.28,0h-6.64v-3.5h6.64Zm-13.28,0H104.8v-3.5h6.65Z"/><polygon class="cls-2" points="95.59 466.71 93.01 466.71 93.01 459.71 98.16 459.71 98.16 463.21 95.59 463.21 95.59 466.71"/><path class="cls-2" d="M95.59,636.56H93V625.94h2.58Zm0-21.23H93V604.71h2.58Zm0-21.23H93V583.48h2.58Zm0-21.23H93V562.25h2.58Zm0-21.24H93V541h2.58Zm0-21.23H93V519.79h2.58Zm0-21.23H93V498.55h2.58Zm0-21.23H93V477.32h2.58Z"/><polygon class="cls-2" points="98.16 654.17 93.01 654.17 93.01 647.18 95.59 647.18 95.59 650.68 98.16 650.68 98.16 654.17"/><path class="cls-2" d="M169.09,654.18H162v-3.5h7.1Zm-14.19,0h-7.09v-3.5h7.09Zm-14.18,0h-7.1v-3.5h7.1Zm-14.19,0h-7.09v-3.5h7.09Zm-14.18,0h-7.1v-3.5h7.1Z"/><polygon class="cls-2" points="181.33 654.17 176.18 654.17 176.18 650.68 178.75 650.68 178.75 647.18 181.33 647.18 181.33 654.17"/><rect class="cls-2" x="178.75" y="630.8" width="2.57" height="8.19"/><polygon class="cls-2" points="181.33 622.6 178.75 622.6 178.75 615.61 183.9 615.61 183.9 619.11 181.33 619.11 181.33 622.6"/><path class="cls-2" d="M690.42,619.11h-7.68v-3.5h7.68Zm-15.35,0h-7.68v-3.5h7.68Zm-15.35,0H652v-3.5h7.68Zm-15.35,0h-7.68v-3.5h7.68Zm-15.35,0h-7.68v-3.5H629Zm-15.35,0H606v-3.5h7.67Zm-15.35,0h-7.67v-3.5h7.67Zm-15.35,0H575.3v-3.5H583Zm-15.35,0H560v-3.5h7.67Zm-15.34,0H544.6v-3.5h7.68Zm-15.35,0h-7.68v-3.5h7.68Zm-15.35,0H513.9v-3.5h7.68Zm-15.35,0h-7.68v-3.5h7.68Zm-15.35,0H483.2v-3.5h7.68Zm-15.35,0h-7.67v-3.5h7.67Zm-15.35,0h-7.67v-3.5h7.67Zm-15.35,0h-7.67v-3.5h7.67Zm-15.35,0h-7.67v-3.5h7.67Zm-15.35,0h-7.67v-3.5h7.67Zm-15.34,0h-7.68v-3.5h7.68Zm-15.35,0h-7.68v-3.5h7.68Zm-15.35,0h-7.68v-3.5h7.68Zm-15.35,0h-7.68v-3.5h7.68Zm-15.35,0h-7.68v-3.5h7.68Zm-15.35,0h-7.67v-3.5H322Zm-15.35,0H299v-3.5h7.67Zm-15.35,0h-7.67v-3.5h7.67Zm-15.35,0h-7.67v-3.5H276Zm-15.34,0H253v-3.5h7.68Zm-15.35,0h-7.68v-3.5h7.68Zm-15.35,0h-7.68v-3.5H230Zm-15.35,0h-7.68v-3.5h7.68Zm-15.35,0h-7.68v-3.5h7.68Z"/><rect class="cls-4" x="250.72" y="231.39" width="375.87" height="215.91"/><g class="cls-5"><polyline class="cls-6" points="626.58 231.39 250.72 231.39 250.72 447.3"/></g><path class="cls-7" d="M492.24,478.91h-109s-.57,47.49-12.05,56.09H504.3C492.82,526.4,492.24,478.91,492.24,478.91Z"/><path class="cls-8" d="M504.3,535H371.14c-11.48,8.61-28.12,15.5,12.05,15.5H492.24C532.42,550.5,515.77,543.61,504.3,535Z"/><path class="cls-9" d="M625,224.73H252.32a8.64,8.64,0,0,0-8.62,8.62V455.49H633.61V233.35A8.65,8.65,0,0,0,625,224.73Zm-186.34,4.86a1.81,1.81,0,1,1-1.8,1.8A1.8,1.8,0,0,1,438.65,229.59ZM618.72,440.83H258.58V237.7H618.72Z"/><path class="cls-8" d="M440.26,468.25a4.17,4.17,0,0,0,1.58-1.54,3.91,3.91,0,0,0,.61-1.71c0-.28,0-.55,0-.82h-.15a2.53,2.53,0,0,0-.36.07,4.28,4.28,0,0,0-3.32,3.61,5.6,5.6,0,0,0,0,.71h.05A2.79,2.79,0,0,0,440.26,468.25Z"/><path class="cls-10" d="M438.65,233.2a1.81,1.81,0,1,0-1.8-1.81A1.8,1.8,0,0,0,438.65,233.2Z"/><path class="cls-8" d="M243.7,455.49v28.84a8.64,8.64,0,0,0,8.62,8.62H625a8.65,8.65,0,0,0,8.62-8.62V455.49Z"/><path class="cls-2" d="M258.5,244.09v13.6H587.4v-13.6c0-3.57-4-6.46-9-6.46l-319.82.07"/><path class="cls-6" d="M283.19,275.32a4.37,4.37,0,1,1-4.37-4.37A4.37,4.37,0,0,1,283.19,275.32Z"/><path class="cls-6" d="M302.18,248.85a4.37,4.37,0,1,1-4.36-4.37A4.37,4.37,0,0,1,302.18,248.85Z"/><path class="cls-6" d="M321.18,248.85a4.37,4.37,0,1,1-4.37-4.37A4.37,4.37,0,0,1,321.18,248.85Z"/><path class="cls-6" d="M577.9,157H790.82a6.47,6.47,0,0,1,6.47,6.47v164.3a6.46,6.46,0,0,1-6.46,6.46H577.9a6.46,6.46,0,0,1-6.46-6.46V163.51A6.46,6.46,0,0,1,577.9,157Z"/><path class="cls-9" d="M797.29,177.11v-13.6a6.46,6.46,0,0,0-6.46-6.46H577.91a6.46,6.46,0,0,0-6.47,6.46v13.6Z"/><path class="cls-6" d="M596.13,168a4.37,4.37,0,1,1-4.36-4.37A4.36,4.36,0,0,1,596.13,168Z"/><path class="cls-6" d="M615.13,168a4.37,4.37,0,1,1-4.37-4.37A4.37,4.37,0,0,1,615.13,168Z"/><path class="cls-6" d="M634.12,168a4.37,4.37,0,1,1-4.36-4.37A4.36,4.36,0,0,1,634.12,168Z"/><path class="cls-6" d="M577.9,522.8H801.12a6.47,6.47,0,0,1,6.47,6.47V667.1a6.46,6.46,0,0,1-6.46,6.46H577.9a6.46,6.46,0,0,1-6.46-6.46V529.26A6.46,6.46,0,0,1,577.9,522.8Z"/><path class="cls-9" d="M807.58,542.86v-13.6a6.46,6.46,0,0,0-6.46-6.46H577.91a6.46,6.46,0,0,0-6.47,6.46v13.6Z"/><path class="cls-6" d="M596.13,533.75a4.37,4.37,0,1,1-4.36-4.37A4.36,4.36,0,0,1,596.13,533.75Z"/><path class="cls-6" d="M615.13,533.75a4.37,4.37,0,1,1-4.37-4.37A4.37,4.37,0,0,1,615.13,533.75Z"/><path class="cls-6" d="M634.12,533.75a4.37,4.37,0,1,1-4.36-4.37A4.36,4.36,0,0,1,634.12,533.75Z"/><path class="cls-6" d="M80.62,521.92H303.83a6.47,6.47,0,0,1,6.47,6.47V666.22a6.46,6.46,0,0,1-6.46,6.46H80.62a6.46,6.46,0,0,1-6.46-6.46V528.38A6.46,6.46,0,0,1,80.62,521.92Z"/><path class="cls-9" d="M310.29,542v-13.6a6.46,6.46,0,0,0-6.46-6.46H80.62a6.47,6.47,0,0,0-6.47,6.46V542Z"/><path class="cls-6" d="M98.85,532.87a4.37,4.37,0,1,1-4.37-4.37A4.37,4.37,0,0,1,98.85,532.87Z"/><path class="cls-6" d="M117.84,532.87a4.37,4.37,0,1,1-4.36-4.37A4.36,4.36,0,0,1,117.84,532.87Z"/><path class="cls-6" d="M136.83,532.87a4.37,4.37,0,1,1-4.36-4.37A4.36,4.36,0,0,1,136.83,532.87Z"/><rect class="cls-4" x="596.71" y="201.27" width="175.19" height="107.64"/><rect class="cls-2" x="596.71" y="285.2" width="175.19" height="23.71"/><path class="cls-6" d="M708.37,243.44a25.12,25.12,0,1,1-25.12-25.12A25.12,25.12,0,0,1,708.37,243.44Z"/><polygon class="cls-2" points="675.07 256.59 697.62 243.44 675.07 230.29 675.07 256.59"/><rect class="cls-9" x="611.51" y="293.32" width="143.49" height="7.27"/><rect class="cls-6" x="611.51" y="293.42" width="49.54" height="7.27"/><rect class="cls-6" x="74.15" y="154.96" width="209.67" height="224.88" rx="6.46" ry="6.46"/><path class="cls-9" d="M283.82,175v-13.6a6.47,6.47,0,0,0-6.46-6.47H80.62a6.47,6.47,0,0,0-6.47,6.47V175Z"/><path class="cls-6" d="M98.84,165.91a4.36,4.36,0,1,1-4.36-4.37A4.37,4.37,0,0,1,98.84,165.91Z"/><path class="cls-6" d="M117.84,165.91a4.37,4.37,0,1,1-4.37-4.37A4.37,4.37,0,0,1,117.84,165.91Z"/><path class="cls-6" d="M136.83,165.91a4.37,4.37,0,1,1-4.36-4.37A4.37,4.37,0,0,1,136.83,165.91Z"/><path class="cls-2" d="M187.13,604.52A44.12,44.12,0,0,0,143,560.4h0v44.12Z"/><path class="cls-4" d="M191.68,609.08H147.55v44.13h0A44.13,44.13,0,0,0,191.68,609.08Z"/><path class="cls-4" d="M98.88,604.52H143V560.4A44.12,44.12,0,0,0,98.88,604.52Z"/><path class="cls-9" d="M98.88,604.53A44.12,44.12,0,0,0,143,648.65V604.52Z"/><polyline class="cls-11" points="161.53 308.82 96.02 309.01 95.99 298.8 170.75 298.59 170.77 308.79 161.53 308.82"/><rect class="cls-11" x="96.04" y="320.31" width="74.74" height="10.2" transform="translate(-0.94 0.39) rotate(-0.17)"/><polygon class="cls-11" points="287.1 621.29 212.34 621.51 212.31 611.3 287.06 611.09 287.1 621.29"/><polyline class="cls-11" points="144 353.32 96.02 353.46 95.99 343.26 150.74 343.1 150.77 353.31 144 353.32"/><polyline class="cls-11" points="252.15 308.82 186.65 309.01 186.62 298.8 261.38 298.59 261.4 308.79 252.15 308.82"/><rect class="cls-11" x="186.66" y="320.29" width="61.88" height="10.2" transform="translate(-0.94 0.63) rotate(-0.17)"/><rect class="cls-11" x="186.66" y="274.59" width="61.88" height="10.2" transform="translate(-0.81 0.63) rotate(-0.17)"/><polyline class="cls-11" points="252.15 353.25 186.65 353.44 186.62 343.24 261.38 343.02 261.4 353.23 252.15 353.25"/><rect class="cls-11" x="212.29" y="633.93" width="73.88" height="10.2" transform="translate(-1.82 0.71) rotate(-0.16)"/><polyline class="cls-11" points="665.43 578 599.92 578.2 599.89 567.99 674.65 567.78 674.67 577.98 665.43 578"/><rect class="cls-11" x="599.94" y="589.48" width="61.88" height="10.2" transform="translate(-1.69 1.79) rotate(-0.16)"/><polygon class="cls-11" points="674.74 621.29 599.99 621.51 599.95 611.3 674.71 611.09 674.74 621.29"/><polyline class="cls-11" points="665.43 622.44 599.92 622.63 599.89 612.43 674.65 612.22 674.67 622.41 665.43 622.44"/><rect class="cls-11" x="599.94" y="633.93" width="73.88" height="10.2" transform="translate(-1.82 1.82) rotate(-0.16)"/><path class="cls-2" d="M782.47,605.12a41.56,41.56,0,1,1-41.56-41.56A41.56,41.56,0,0,1,782.47,605.12Z"/><circle class="cls-4" cx="740.91" cy="605.12" r="10.18"/><path class="cls-4" d="M740.91,579A26.08,26.08,0,1,0,767,605.12,26.11,26.11,0,0,0,740.91,579Z"/><path class="cls-9" d="M740.91,649.4a44.28,44.28,0,1,1,44.27-44.28A44.32,44.32,0,0,1,740.91,649.4Zm0-83.13a38.86,38.86,0,1,0,38.85,38.85A38.9,38.9,0,0,0,740.91,566.27Z"/><path class="cls-9" d="M178.69,237.59a40.75,40.75,0,0,0-.41-5.45l-38.55,5.45,20.76-33s-5.25-6-20.76-6a39,39,0,1,0,39,39Z"/><path class="cls-2" d="M170.56,198.61,149.8,231.55l38.54-5.44a39.65,39.65,0,0,0-.83-4.21c-.75-2.39-1.67-5.17-2.33-6.61l-.26-.52a51.34,51.34,0,0,0-5.92-9C177.13,203.78,170.56,198.61,170.56,198.61Z"/><rect class="cls-11" x="242.14" y="195.92" width="19.26" height="19.26"/><rect class="cls-11" x="242.14" y="233.81" width="19.26" height="19.26"/><rect class="cls-11" x="205.36" y="195.92" width="19.26" height="19.26"/><rect class="cls-11" x="205.36" y="233.81" width="19.26" height="19.26"/><path class="cls-6" d="M668,297.06a6.93,6.93,0,1,1-6.93-6.94A6.93,6.93,0,0,1,668,297.06Z"/><rect class="cls-12" x="611.34" y="226.05" width="32.69" height="7.42"/><rect class="cls-12" x="611.34" y="239.73" width="32.69" height="7.42"/><rect class="cls-12" x="611.34" y="253.4" width="24.35" height="7.42"/><rect class="cls-12" x="723.64" y="226.05" width="32.69" height="7.42"/><rect class="cls-12" x="723.64" y="239.73" width="32.69" height="7.42"/><rect class="cls-12" x="723.64" y="253.4" width="24.35" height="7.42"/><path class="cls-3" d="M584.49,127.62H329.23c-7.91,0-14.38,5.85-14.38,13V372.06c0,7.16,6.47,13,14.38,13H584.49c7.91,0,14.39-5.85,14.39-13V140.63C598.88,133.47,592.4,127.62,584.49,127.62Z"/><g class="cls-3"><path class="cls-13" d="M533.09,637.61a55.52,55.52,0,1,1-55.52-55.52A55.52,55.52,0,0,1,533.09,637.61Z"/></g><path class="cls-14" d="M522.87,631.21A53.17,53.17,0,1,1,469.7,578,53.17,53.17,0,0,1,522.87,631.21Z"/><path class="cls-2" d="M469.7,627.11a7.4,7.4,0,1,0,7.4,7.4A7.4,7.4,0,0,0,469.7,627.11Z"/><path class="cls-2" d="M498.56,622v-2.33a4.46,4.46,0,0,0-4.44-4.44H460.84v-6.59H449.18v6.59h-3.9a4.46,4.46,0,0,0-4.44,4.44v29.63a4.46,4.46,0,0,0,4.44,4.44h48.84a4.45,4.45,0,0,0,4.44-4.44V627.75h-10.9V622ZM469.7,647a12.49,12.49,0,1,1,12.48-12.49A12.49,12.49,0,0,1,469.7,647Z"/><path class="cls-9" d="M584.1,110.36c0-6-6.3-10.84-14-10.84H321.7c-7.7,0-14,4.88-14,10.84v20.53H584.1Z"/><path class="cls-6" d="M307.7,129.53V352.07a14,14,0,0,0,14,14H570.1a14,14,0,0,0,14-14V129.53Z"/><path class="cls-6" d="M331.64,115.17a4.81,4.81,0,1,1-4.81-4.81A4.81,4.81,0,0,1,331.64,115.17Z"/><path class="cls-6" d="M353,115.24a4.81,4.81,0,1,1-4.81-4.81A4.81,4.81,0,0,1,353,115.24Z"/><path class="cls-6" d="M374.25,115.17a4.81,4.81,0,1,1-4.81-4.81A4.81,4.81,0,0,1,374.25,115.17Z"/><rect class="cls-6" x="391.36" y="111.41" width="170.64" height="7.47"/><rect class="cls-2" x="327.41" y="223.98" width="69.91" height="4.77"/><rect class="cls-2" x="411.08" y="223.98" width="22.2" height="4.77"/><rect class="cls-11" x="334.32" y="243.25" width="62.19" height="2.77"/><rect class="cls-11" x="407.31" y="244.63" width="33.65" height="2.53"/><rect class="cls-11" x="343.83" y="255.85" width="64.43" height="3.18"/><rect class="cls-11" x="414.01" y="254.61" width="14.89" height="2.83"/><circle class="cls-2" cx="504.66" cy="228.95" r="6.67"/><circle class="cls-2" cx="529.59" cy="228.95" r="6.67"/><circle class="cls-2" cx="553.43" cy="228.95" r="6.67"/><rect class="cls-2" x="326.76" y="277.28" width="23.44" height="88.78"/><rect class="cls-2" x="362.75" y="313.68" width="23.44" height="52.38"/><rect class="cls-2" x="398.08" y="288.07" width="23.44" height="78"/><rect class="cls-2" x="434.22" y="277.28" width="23.44" height="88.78"/><rect class="cls-2" x="469.99" y="304.34" width="23.44" height="61.72"/><rect class="cls-2" x="504.66" y="265.64" width="23.44" height="100.43"/><rect class="cls-2" x="540.59" y="255.29" width="23.44" height="110.77"/><polygon class="cls-15" points="306.13 363.05 361.49 308.75 409.53 329.93 468.53 299.76 516.38 310.68 577.63 265.64 584.29 272.83 518.5 321.67 469.99 311.42 409.8 341.4 362.75 320.58 313.63 371.1 306.13 363.05"/><path class="cls-9" d="M371.7,316.46a8.95,8.95,0,1,1-8.95-8.94A8.95,8.95,0,0,1,371.7,316.46Z"/><path class="cls-9" d="M477.86,305.41a8.94,8.94,0,1,1-8.94-8.94A8.94,8.94,0,0,1,477.86,305.41Z"/><path class="cls-9" d="M573.24,279.66a8.95,8.95,0,1,1-8.94-8.94A8.94,8.94,0,0,1,573.24,279.66Z"/><rect class="cls-4" x="335.34" y="140.81" width="65.39" height="49.22"/><rect class="cls-11" x="335.34" y="190.03" width="65.39" height="16.73"/><circle class="cls-6" cx="368.03" cy="171.48" r="6.91"/><rect class="cls-6" x="353.32" y="196.3" width="29.56" height="4.32"/><rect class="cls-2" x="413.21" y="140.81" width="65.39" height="49.22"/><rect class="cls-11" x="413.21" y="190.03" width="65.39" height="16.73"/><circle class="cls-6" cx="445.91" cy="171.48" r="6.91"/><rect class="cls-6" x="431.2" y="196.3" width="29.56" height="4.32"/><rect class="cls-9" x="490.86" y="140.81" width="65.39" height="49.22"/><rect class="cls-11" x="490.86" y="190.03" width="65.39" height="16.73"/><circle class="cls-6" cx="523.56" cy="171.48" r="6.91"/><rect class="cls-6" x="508.85" y="196.3" width="29.56" height="4.32"/><g class="cls-3"><path class="cls-13" d="M120.89,475.87A29.58,29.58,0,1,1,91.31,446.3,29.58,29.58,0,0,1,120.89,475.87Z"/></g><path class="cls-14" d="M115.12,471.32a29.58,29.58,0,1,1-29.58-29.57A29.59,29.59,0,0,1,115.12,471.32Z"/><path class="cls-2" d="M100.36,480.19l-7.22-6.63a12.13,12.13,0,1,0-5.37,5.37l6.64,7.21a1.65,1.65,0,0,0,2.4.06l3.6-3.61A1.66,1.66,0,0,0,100.36,480.19Zm-18-4.69a7.41,7.41,0,1,1,7.41-7.41A7.41,7.41,0,0,1,82.31,475.5Z"/><g class="cls-3"><path class="cls-13" d="M334.06,37.55a25.47,25.47,0,1,1-25.48-25.47A25.47,25.47,0,0,1,334.06,37.55Z"/></g><path class="cls-14" d="M330.27,34A25.47,25.47,0,1,1,304.8,8.57,25.48,25.48,0,0,1,330.27,34Z"/><path class="cls-2" d="M301.93,32a2.86,2.86,0,0,0,2.78,2.52h1.37A2.86,2.86,0,0,0,308.86,32l.35-3.6A3.46,3.46,0,0,0,307.45,25a6.14,6.14,0,0,0-4.06,0,3.43,3.43,0,0,0-1.81,3.37Zm-5.93.66h1a2.07,2.07,0,0,0,2-1.82l.26-2.62A2.5,2.5,0,0,0,298,25.73a4.39,4.39,0,0,0-2.95,0,2.48,2.48,0,0,0-1.31,2.44l.25,2.62A2.07,2.07,0,0,0,296,32.61Zm17.46,0h1a2.07,2.07,0,0,0,2-1.82l.25-2.62a2.48,2.48,0,0,0-1.27-2.44,4.36,4.36,0,0,0-2.94,0,2.48,2.48,0,0,0-1.32,2.44l.26,2.62A2.06,2.06,0,0,0,313.46,32.61Zm-2.35,5.47a6.68,6.68,0,0,0-4.27-1.85h-4.09a6.68,6.68,0,0,0-4.27,1.85l-3.31,3.51c-.95,1-.59,1.85.8,1.85h17.65c1.39,0,1.75-.83.8-1.85Zm9.39-.3-2.4-2.55A4.84,4.84,0,0,0,315,33.89h-3a4.89,4.89,0,0,0-3.1,1.34l-.35.38a8.23,8.23,0,0,1,3.89,2.08l1.34,1.42h6.1C320.93,39.11,321.19,38.51,320.5,37.78Zm-23.4-.09A8.3,8.3,0,0,1,301,35.61l-.36-.38a4.87,4.87,0,0,0-3.1-1.34h-3a4.86,4.86,0,0,0-3.09,1.34l-2.4,2.55c-.69.73-.43,1.33.58,1.33h6.1Z"/><g class="cls-3"><path class="cls-13" d="M825.44,448.57A29.58,29.58,0,1,1,795.86,419,29.59,29.59,0,0,1,825.44,448.57Z"/></g><path class="cls-14" d="M819.67,444a29.58,29.58,0,1,1-29.58-29.57A29.59,29.59,0,0,1,819.67,444Z"/><path class="cls-16" d="M807,448.41a3.82,3.82,0,0,1-4.67,2.7l-1.86-.5a11.61,11.61,0,0,1-3,2.94l.5,1.87a3.82,3.82,0,0,1-7.37,2l-.5-1.87a11.64,11.64,0,0,1-4-1.08l-1.36,1.37a3.81,3.81,0,0,1-5.39-5.4l1.36-1.36a12.48,12.48,0,0,1-.73-2,12.15,12.15,0,0,1-.35-2.06l-1.86-.5a3.81,3.81,0,1,1,2-7.37l1.87.5a11.3,11.3,0,0,1,2.95-2.94l-.5-1.87a3.81,3.81,0,1,1,7.36-2l.5,1.86a11.58,11.58,0,0,1,4,1.08l1.37-1.36a3.81,3.81,0,1,1,5.39,5.39l-1.37,1.36a11,11,0,0,1,.73,2,10.8,10.8,0,0,1,.35,2.07l1.87.5A3.81,3.81,0,0,1,807,448.41Zm-16-10.63a6.36,6.36,0,1,0,6.35,6.36A6.36,6.36,0,0,0,791,437.78ZM791,448a3.82,3.82,0,1,1,3.81-3.81A3.81,3.81,0,0,1,791,448Z"/><g class="cls-3"><path class="cls-13" d="M687.51,86.73a33.79,33.79,0,1,1-33.79-33.79A33.79,33.79,0,0,1,687.51,86.73Z"/></g><path class="cls-14" d="M681.3,82.83a32.37,32.37,0,1,1-32.37-32.36A32.37,32.37,0,0,1,681.3,82.83Z"/><path class="cls-16" d="M662.25,85.29a4.71,4.71,0,0,1-.62-2l-15.42-7.17a3.3,3.3,0,0,1-.3.22,2.21,2.21,0,0,1-.35.16l-1.29,17a4.79,4.79,0,1,1-5.12-.19c.11-.07.23-.1.34-.16l1.29-16.95a4.85,4.85,0,0,1-1.43-1.52,4.79,4.79,0,1,1,8.27-4.84,4.73,4.73,0,0,1,.63,2L663.66,79l.31-.22a4.79,4.79,0,1,1-1.72,6.56Z"/></svg>